{"glyphs":{"":{"ha":1190,"x_min":0,"x_max":1181,"o":"m 596 436 l 596 89 q 581 54 596 69 q 546 40 565 39 q 511 54 526 42 l 399 167 l 142 -92 q 124 -99 135 -99 q 107 -92 113 -99 l 18 -3 q 10 15 10 6 q 18 33 10 25 l 275 290 l 164 401 q 149 436 149 417 q 164 471 149 456 q 199 486 179 486 l 546 486 q 581 471 565 486 q 596 436 596 456 m 1181 957 q 1172 940 1181 947 l 915 682 l 1026 571 q 1042 536 1042 556 q 1026 501 1042 517 q 992 486 1011 486 l 644 486 q 610 501 625 486 q 596 536 594 517 l 596 883 q 610 918 596 903 q 644 932 624 933 q 679 918 665 931 l 792 807 l 1049 1064 q 1067 1071 1057 1071 q 1085 1064 1076 1071 l 1172 975 q 1181 957 1181 968 z "},"":{"ha":1190,"x_min":0,"x_max":1192,"o":"m 585 363 q 578 344 585 353 l 321 88 l 432 -25 q 446 -60 446 -39 q 432 -94 446 -81 q 397 -110 418 -108 l 50 -110 q 15 -94 29 -110 q 0 -60 1 -79 l 0 288 q 15 322 0 308 q 50 338 31 336 q 85 322 69 339 l 196 211 l 454 468 q 471 476 461 476 q 489 468 481 476 l 578 381 q 585 363 585 372 m 1190 1032 l 1190 685 q 1176 650 1190 664 q 1140 635 1163 636 q 1106 650 1118 633 l 994 761 l 738 504 q 719 496 729 496 q 701 504 710 496 l 613 593 q 606 610 606 600 q 613 628 606 619 l 871 885 l 758 997 q 744 1032 744 1011 q 758 1067 744 1053 q 793 1082 772 1081 l 1140 1082 q 1176 1067 1161 1082 q 1190 1032 1192 1051 z "},"":{"ha":1090,"x_min":0,"x_max":1090,"o":"m 1072 463 l 43 -110 q 13 -112 25 -119 q 0 -85 0 -106 l 0 1057 q 13 1085 0 1076 q 43 1082 25 1093 l 1072 510 q 1090 486 1090 500 q 1072 463 1090 472 z "},"":{"ha":1190,"x_min":0,"x_max":1192,"o":"m 1190 1032 l 1190 -60 q 1176 -94 1190 -79 q 1140 -110 1163 -110 l 744 -110 q 710 -94 724 -110 q 694 -60 696 -79 l 694 1032 q 710 1067 694 1051 q 744 1082 725 1082 l 1140 1082 q 1176 1067 1161 1082 q 1190 1032 1192 1051 m 496 1032 l 496 -60 q 482 -94 496 -79 q 446 -110 468 -110 l 50 -110 q 15 -94 29 -110 q 0 -60 1 -79 l 0 1032 q 15 1067 0 1051 q 50 1082 31 1082 l 446 1082 q 482 1067 467 1082 q 496 1032 497 1051 z "},"":{"ha":1289,"x_min":-1,"x_max":1196,"o":"m 35 -99 q 10 -110 21 -114 q 0 -85 -1 -106 l 0 1057 q 10 1082 0 1076 q 35 1071 19 1088 l 585 521 q 596 507 592 514 l 596 1057 q 606 1082 596 1076 q 631 1071 615 1088 l 1181 521 q 1196 486 1196 507 q 1181 451 1196 465 l 631 -99 q 606 -110 615 -114 q 596 -85 596 -106 l 596 467 q 585 451 592 458 l 35 -99 z "},"":{"ha":1289,"x_min":0,"x_max":1290,"o":"m 1256 1071 q 1279 1082 1269 1086 q 1290 1057 1289 1078 l 1290 -85 q 1279 -110 1290 -104 q 1256 -99 1268 -115 l 704 451 q 694 467 697 458 l 694 -85 q 685 -110 694 -104 q 660 -99 675 -115 l 110 451 q 94 486 94 467 q 110 521 94 506 l 660 1071 q 685 1082 675 1086 q 694 1057 694 1078 l 694 507 q 704 521 697 514 l 1256 1071 z "},"":{"ha":1190,"x_min":0,"x_max":1192,"o":"m 1190 1032 l 1190 -60 q 1176 -94 1190 -79 q 1140 -110 1163 -110 l 50 -110 q 15 -94 29 -110 q 0 -60 1 -79 l 0 1032 q 15 1067 0 1051 q 50 1082 31 1082 l 1140 1082 q 1176 1067 1161 1082 q 1190 1032 1192 1051 z "},"":{"ha":1190,"x_min":0,"x_max":1192,"o":"m 793 486 q 736 626 793 568 q 596 685 679 685 q 456 626 513 685 q 397 486 399 568 q 456 346 396 404 q 596 288 515 288 q 736 346 676 288 q 793 486 796 404 m 1190 571 l 1190 399 q 1185 381 1190 389 q 1169 371 1179 372 l 1025 349 q 996 278 1011 307 q 1078 171 1022 240 q 1086 153 1086 163 q 1079 135 1086 143 q 1003 50 1058 106 q 929 -4 947 -6 q 910 3 919 -4 l 803 86 q 732 57 768 68 q 710 -87 719 -49 q 682 -110 704 -110 l 510 -110 q 490 -103 499 -110 q 482 -86 482 -96 l 460 57 q 390 86 422 69 l 281 3 q 261 -4 272 -4 q 242 4 250 -4 q 114 135 144 93 q 108 151 108 142 q 115 169 108 161 q 154 221 126 186 q 196 276 182 256 q 164 353 175 315 l 22 374 q 7 383 13 375 q 0 401 1 392 l 0 574 q 7 592 0 583 q 21 601 14 600 l 165 624 q 196 694 176 658 q 113 801 164 739 q 104 819 104 811 q 111 838 104 828 q 188 921 132 865 q 261 976 243 976 q 282 969 271 976 l 389 886 q 458 915 422 904 q 482 1060 471 1021 q 510 1082 486 1082 l 682 1082 q 700 1075 692 1082 q 710 1058 708 1068 l 731 915 q 801 888 769 903 l 911 969 q 928 976 918 976 q 949 969 939 976 q 1076 838 1049 876 q 1082 821 1082 831 q 1076 803 1082 811 q 1036 751 1064 786 q 994 696 1008 717 q 1026 621 1015 657 l 1168 599 q 1185 589 1178 597 q 1190 571 1192 581 z "},"":{"ha":594,"x_min":0,"x_max":596,"o":"m 596 908 l 596 64 q 581 29 596 44 q 546 15 565 14 q 511 29 526 17 l 253 288 l 50 288 q 15 303 29 288 q 0 338 1 318 l 0 635 q 15 669 0 656 q 50 685 31 683 l 253 685 l 511 943 q 546 957 525 957 q 581 943 567 957 q 596 908 594 929 z "},"":{"ha":892,"x_min":0,"x_max":893,"o":"m 596 908 l 596 64 q 581 29 596 44 q 546 15 565 14 q 511 29 526 17 l 253 288 l 50 288 q 15 303 29 288 q 0 338 1 318 l 0 635 q 15 669 0 656 q 50 685 31 683 l 253 685 l 511 943 q 546 957 525 957 q 581 943 567 957 q 596 908 594 929 m 893 486 q 860 376 893 428 q 772 304 826 325 q 753 300 765 300 q 718 314 733 300 q 704 350 703 328 q 713 378 704 367 q 736 397 721 389 q 763 414 751 406 q 785 443 774 422 q 793 486 796 464 q 785 531 790 508 q 763 558 779 553 q 736 576 746 564 q 713 594 726 589 q 704 622 699 600 q 718 658 704 643 q 753 672 732 674 q 772 668 765 672 q 860 596 826 647 q 893 486 893 544 z "},"":{"ha":1289,"x_min":0,"x_max":1290,"o":"m 596 908 l 596 64 q 581 29 596 44 q 546 15 565 14 q 511 29 526 17 l 253 288 l 50 288 q 15 303 29 288 q 0 338 1 318 l 0 635 q 15 669 0 656 q 50 685 31 683 l 253 685 l 511 943 q 546 957 525 957 q 581 943 567 957 q 596 908 594 929 m 893 486 q 860 376 893 428 q 772 304 826 325 q 753 300 765 300 q 718 314 733 300 q 704 350 703 328 q 713 378 704 367 q 736 397 721 389 q 763 414 751 406 q 785 443 774 422 q 793 486 796 464 q 785 531 790 508 q 763 558 779 553 q 736 576 746 564 q 713 594 726 589 q 704 622 699 600 q 718 658 704 643 q 753 672 732 674 q 772 668 765 672 q 860 596 826 647 q 893 486 893 544 m 1092 486 q 1025 267 1092 368 q 851 121 958 165 q 832 117 842 117 q 796 132 811 117 q 782 167 781 147 q 811 213 782 197 q 871 247 856 235 q 960 351 928 289 q 992 486 992 414 q 960 621 992 558 q 871 725 928 683 q 811 760 856 738 q 782 806 782 775 q 796 840 782 825 q 831 856 810 856 q 851 851 842 856 q 1025 706 960 806 q 1092 486 1090 606 m 1290 486 q 1192 158 1290 308 q 929 -61 1093 8 q 910 -65 919 -65 q 875 -50 889 -65 q 860 -15 861 -35 q 890 31 860 13 l 925 47 q 989 86 960 67 q 1138 263 1083 157 q 1190 486 1192 368 q 1138 710 1189 604 q 989 886 1086 815 q 925 925 960 907 q 907 933 919 929 q 890 942 894 938 q 860 988 860 960 q 875 1022 860 1008 q 910 1038 890 1036 q 929 1033 919 1038 q 1192 814 1093 963 q 1290 486 1290 665 z "},"":{"ha":1190,"x_min":-3,"x_max":1190,"o":"m 1190 982 l 1190 635 q 1176 600 1190 615 q 1140 585 1163 585 l 793 585 q 748 616 761 585 q 758 669 735 647 l 865 776 q 596 883 751 883 q 442 851 515 883 q 315 767 368 819 q 231 640 263 714 q 199 486 199 567 q 231 332 199 406 q 315 206 263 258 q 442 121 368 153 q 596 89 515 89 q 769 129 688 89 q 908 243 851 169 q 926 252 914 251 q 946 246 938 253 l 1051 139 q 1060 124 1058 133 q 1053 106 1061 114 q 849 -53 969 3 q 596 -110 728 -108 q 364 -62 475 -110 q 175 65 253 -15 q 47 256 97 146 q 0 486 -3 365 q 47 717 3 607 q 175 907 92 826 q 364 1035 258 988 q 596 1082 469 1082 q 815 1039 710 1082 q 1006 917 921 996 l 1106 1017 q 1160 1028 1129 1042 q 1190 982 1190 1015 z "},"":{"ha":1250,"x_min":0,"x_max":1250,"o":"m 1111 750 q 1210 710 1169 750 q 1250 611 1250 669 l 1250 208 q 1210 111 1250 153 q 1111 69 1169 69 l 139 69 q 42 111 83 69 q 0 208 0 153 l 0 611 q 42 710 0 669 q 139 750 83 750 l 486 750 l 486 903 l 764 653 l 486 403 l 486 556 l 194 556 l 194 264 l 1056 264 l 1056 556 l 847 556 l 847 750 l 1111 750 z "},"":{"ha":1289,"x_min":0,"x_max":1265,"o":"m 1110 488 l 1265 488 l 1265 410 q 1199 244 1265 314 q 1033 176 1132 175 l 490 176 l 490 22 l 181 256 l 490 488 l 490 332 l 1033 332 q 1088 354 1065 332 q 1110 410 1110 376 l 1110 488 m 181 565 l 181 488 l 25 488 l 25 565 q 93 729 25 663 q 258 797 161 796 l 800 797 l 800 951 l 1110 721 l 800 488 l 800 642 l 258 642 q 203 619 225 642 q 181 565 181 597 z "},"":{"ha":639,"x_min":0,"x_max":639,"o":"m 489 1181 q 592 1143 556 1181 q 628 1047 628 1106 q 574 925 628 978 q 442 872 519 872 q 339 908 375 872 q 304 1008 303 944 q 354 1126 306 1072 q 489 1181 403 1181 m 203 -208 q 128 39 64 -208 l 211 392 q 213 469 231 469 q 136 444 194 469 q 36 392 78 419 l 0 453 q 263 628 125 561 q 472 694 400 694 q 522 469 581 694 l 425 100 q 433 11 403 11 q 597 94 494 11 l 639 39 q 396 -144 522 -81 q 203 -208 269 -208 z "},"":{"ha":1389,"x_min":0,"x_max":1389,"o":"m 1290 436 q 994 710 1172 619 q 1042 536 1042 629 q 940 290 1042 393 q 694 189 839 188 q 449 290 550 190 q 347 536 347 390 q 394 710 347 629 q 99 436 217 619 q 358 183 203 278 q 694 89 514 89 q 1032 183 875 89 q 1290 436 1189 278 m 732 735 q 721 761 732 750 q 694 771 710 772 q 528 701 597 771 q 458 536 458 632 q 469 510 458 521 q 496 499 481 499 q 522 510 511 499 q 533 536 533 521 q 581 650 533 603 q 694 697 628 697 q 721 708 710 697 q 732 735 732 719 m 1389 436 q 1374 383 1389 410 q 1082 97 1265 204 q 694 -10 899 -10 q 307 97 490 -10 q 15 383 124 204 q 0 436 0 410 q 15 490 0 463 q 307 775 124 668 q 694 883 490 882 q 1082 775 899 885 q 1374 490 1265 665 q 1389 436 1389 463 z "},"":{"ha":1389,"x_min":0,"x_max":1389,"o":"m 431 146 l 490 256 q 385 378 424 304 q 347 536 346 451 q 394 710 347 629 q 99 436 217 619 q 431 146 229 236 m 732 735 q 721 761 732 750 q 694 771 710 772 q 528 701 597 771 q 458 536 458 632 q 469 510 458 521 q 496 499 481 499 q 522 510 511 499 q 533 536 533 521 q 581 650 533 603 q 694 697 628 697 q 721 708 710 697 q 732 735 732 719 m 1013 882 q 1013 875 1013 876 q 768 436 931 729 q 524 -3 606 143 l 485 -72 q 464 -85 478 -85 q 360 -31 454 -85 q 347 -8 347 -22 q 382 60 347 1 q 178 193 271 110 q 15 383 85 276 q 0 436 0 407 q 15 490 0 465 q 310 778 135 672 q 694 883 485 883 q 833 869 764 883 l 876 944 q 897 957 883 957 q 911 953 901 957 q 936 940 921 949 l 986 913 q 1000 903 1001 904 q 1013 882 1013 896 m 1042 536 q 981 339 1042 428 q 818 213 919 250 l 1036 601 q 1042 536 1042 567 m 1389 436 q 1374 383 1389 410 q 1289 271 1343 333 q 1019 64 1172 138 q 694 -10 867 -10 l 751 93 q 1056 199 917 107 q 1290 436 1194 290 q 1071 664 1200 575 l 1119 751 q 1261 633 1193 701 q 1374 490 1329 565 q 1389 436 1389 464 z "},"":{"ha":646,"x_min":-17,"x_max":664,"o":"m 628 -28 q 628 -94 664 -64 q 561 -94 592 -131 l 17 453 q 17 522 -17 486 l 561 1069 q 628 1069 592 1106 q 628 1003 664 1039 l 131 486 l 628 -28 z "},"":{"ha":646,"x_min":-18,"x_max":663,"o":"m 18 -28 l 515 486 l 18 1003 q 18 1069 -18 1039 q 85 1069 54 1106 l 629 522 q 629 453 663 486 l 85 -94 q 18 -94 54 -131 q 18 -28 -18 -64 z "},"":{"ha":1200,"x_min":-17,"x_max":1217,"o":"m 1117 181 l 600 678 l 86 181 q 17 182 50 150 q 17 250 -17 214 l 567 792 q 633 792 603 828 l 1183 250 q 1183 181 1217 214 q 1117 181 1147 150 z "},"":{"ha":1250,"x_min":0,"x_max":1250,"o":"m 217 203 l 69 342 l 481 342 l 481 -69 l 342 78 l 139 -139 l 0 0 l 217 203 m 1250 972 l 1036 772 l 1181 633 l 772 633 l 772 1042 l 911 897 l 1111 1111 l 1250 972 z "},"":{"ha":1100,"x_min":0,"x_max":1100,"o":"m 661 1036 l 1100 1036 l 1100 597 l 961 769 l 758 558 l 619 697 l 831 900 l 661 1036 m 342 419 l 481 281 l 269 78 l 439 -61 l 0 -61 l 0 378 l 139 208 l 342 419 z "},"":{"ha":1111,"x_min":0,"x_max":1111,"o":"m 903 278 q 1050 218 989 278 q 1111 71 1111 158 q 1050 -78 1111 -17 q 903 -139 989 -139 q 756 -78 817 -139 q 694 69 694 -17 q 696 89 694 78 q 697 106 697 100 l 336 322 q 208 278 278 278 q 61 339 122 278 q 0 486 0 400 q 61 633 0 572 q 208 694 122 694 q 336 653 283 694 l 697 869 q 696 886 697 875 q 694 903 694 897 q 756 1050 694 989 q 903 1111 817 1111 q 1050 1051 989 1111 q 1111 904 1111 992 q 1050 756 1111 817 q 903 694 989 694 q 778 739 831 694 l 414 522 q 417 488 417 511 q 414 453 417 464 l 778 236 q 903 278 828 278 z "},"":{"ha":496,"x_min":0,"x_max":486,"o":"m 486 758 q 478 742 486 749 l 174 436 l 478 132 q 486 114 486 124 q 478 96 486 104 l 439 57 q 422 50 432 50 q 404 57 413 50 l 43 419 q 35 436 35 426 q 43 454 35 446 l 404 815 q 422 824 411 824 q 439 815 433 824 l 478 776 q 486 758 486 769 z "},"":{"ha":496,"x_min":0,"x_max":461,"o":"m 461 436 q 454 419 461 426 l 92 57 q 75 50 85 50 q 57 57 65 50 l 18 96 q 10 114 10 104 q 18 132 10 124 l 322 436 l 18 742 q 10 758 10 749 q 18 776 10 768 l 57 815 q 75 824 64 824 q 92 815 86 824 l 454 454 q 461 436 461 447 z "},"":{"ha":892,"x_min":0,"x_max":833,"o":"m 833 263 q 825 246 833 253 l 786 207 q 769 199 779 199 q 751 207 760 199 l 446 511 l 142 207 q 124 199 135 199 q 107 207 113 199 l 68 246 q 60 263 60 253 q 68 281 60 272 l 429 642 q 446 650 436 650 q 464 642 456 650 l 825 281 q 833 263 833 274 z "},"":{"ha":892,"x_min":0,"x_max":833,"o":"m 833 610 q 825 593 833 600 l 464 231 q 446 224 457 224 q 429 231 435 224 l 68 593 q 60 610 60 600 q 68 628 60 619 l 107 667 q 124 675 114 675 q 142 667 133 675 l 446 363 l 751 667 q 769 675 758 675 q 786 667 781 675 l 825 628 q 833 610 833 621 z "},"":{"ha":1488,"x_min":0,"x_max":1453,"o":"m 478 96 l 439 57 q 422 50 432 50 q 404 57 413 50 l 43 419 q 35 436 35 426 q 43 454 35 446 l 404 815 q 422 824 411 824 q 439 815 433 824 l 478 776 q 486 758 486 769 q 478 742 486 747 l 174 436 l 478 132 q 486 114 486 124 q 478 96 486 104 m 936 924 l 647 -78 q 635 -93 644 -87 q 617 -94 625 -99 l 569 -82 q 554 -69 558 -78 q 551 -50 550 -61 l 842 950 q 853 965 844 961 q 871 968 861 969 l 919 954 q 935 942 929 951 q 936 924 940 932 m 1446 419 l 1085 57 q 1067 50 1076 50 q 1049 57 1057 50 l 1010 96 q 1003 114 1003 104 q 1010 132 1003 124 l 1314 436 l 1010 742 q 1003 758 1003 749 q 1010 776 1003 768 l 1049 815 q 1067 824 1057 824 q 1085 815 1076 824 l 1446 454 q 1453 436 1453 447 q 1446 419 1453 425 z "},"":{"ha":496,"x_min":0,"x_max":497,"o":"m 496 139 l 496 40 q 482 6 496 19 q 446 -10 468 -8 l 50 -10 q 15 6 29 -10 q 0 40 1 21 l 0 139 q 15 174 0 160 q 50 189 31 188 l 99 189 l 99 486 l 50 486 q 15 501 29 486 q 0 536 1 517 l 0 635 q 15 669 0 656 q 50 685 31 683 l 347 685 q 382 669 368 685 q 397 635 396 654 l 397 189 l 446 189 q 482 174 467 189 q 496 139 497 158 m 397 1032 l 397 883 q 382 849 397 863 q 347 833 367 835 l 149 833 q 114 849 129 833 q 99 883 99 864 l 99 1032 q 114 1067 99 1051 q 149 1082 129 1082 l 347 1082 q 382 1067 368 1082 q 397 1032 396 1051 z "},"":{"ha":1586,"x_min":-1,"x_max":1588,"o":"m 893 486 q 861 640 893 567 q 776 767 829 714 q 650 851 724 819 q 496 883 576 883 q 342 851 415 883 q 215 767 268 819 q 131 640 163 714 q 99 486 99 567 q 131 332 99 406 q 215 206 163 258 q 342 121 268 153 q 496 89 415 89 q 650 121 576 89 q 776 206 724 153 q 861 332 829 258 q 893 486 893 406 m 1488 486 q 1457 640 1488 567 q 1372 767 1426 714 q 1246 851 1318 819 q 1092 883 1174 883 l 792 883 q 939 710 885 814 q 992 486 993 606 q 939 263 990 367 q 792 89 888 158 l 1092 89 q 1246 121 1172 89 q 1372 206 1319 153 q 1457 332 1425 258 q 1488 486 1489 406 m 1588 486 q 1547 293 1588 386 q 1442 136 1507 200 q 1283 29 1376 72 q 1092 -10 1190 -14 l 496 -10 q 304 29 396 -10 q 146 136 213 68 q 40 293 79 204 q 0 486 1 382 q 40 679 -1 590 q 146 838 82 768 q 304 943 210 907 q 496 982 399 979 l 1092 982 q 1283 943 1192 982 q 1442 838 1375 904 q 1547 679 1508 771 q 1588 486 1586 588 z "},"":{"ha":1586,"x_min":0,"x_max":1589,"o":"m 0 486 q 40 679 0 588 q 146 838 81 771 q 304 943 211 904 q 496 982 397 982 l 1092 982 q 1283 943 1192 982 q 1442 838 1375 904 q 1547 679 1508 771 q 1588 486 1586 588 q 1547 293 1589 385 q 1442 136 1506 201 q 1283 29 1378 71 q 1092 -10 1189 -12 l 496 -10 q 304 29 396 -10 q 146 136 213 68 q 40 293 79 204 q 0 486 1 382 m 1092 89 q 1246 121 1172 89 q 1372 206 1319 153 q 1457 332 1425 258 q 1488 486 1489 406 q 1457 640 1486 567 q 1372 767 1428 714 q 1246 851 1317 819 q 1092 883 1175 883 q 938 851 1008 883 q 811 767 867 819 q 726 640 756 714 q 694 486 697 567 q 726 332 692 406 q 811 206 761 258 q 938 121 861 153 q 1092 89 1014 89 z "},"":{"ha":1586,"x_min":0,"x_max":1588,"o":"m 608 400 l 769 400 q 693 207 758 276 q 526 136 628 138 q 329 226 401 136 q 257 469 257 317 q 329 713 257 622 q 510 804 401 803 q 690 736 625 804 q 765 544 756 668 l 608 544 q 581 622 604 594 q 517 649 557 650 q 449 601 472 649 q 424 464 425 554 q 428 400 424 428 q 442 346 432 372 q 472 306 451 319 q 524 292 493 292 q 608 400 597 292 m 1160 400 l 1319 400 q 1244 207 1310 276 q 1078 136 1179 138 q 881 226 953 136 q 810 471 808 317 q 882 713 810 622 q 1063 804 954 803 q 1242 736 1176 804 q 1317 544 1307 668 l 1158 544 q 1132 622 1156 594 q 1069 649 1108 650 q 1000 601 1025 649 q 976 464 975 554 q 979 400 976 428 q 993 346 982 372 q 1024 306 1004 319 q 1075 292 1043 292 q 1135 321 1113 292 q 1160 400 1157 350 m 1439 492 q 1426 729 1439 651 q 1379 854 1414 807 q 1369 865 1375 861 l 1340 885 q 800 935 1274 935 q 250 885 315 935 l 236 876 q 219 865 226 871 q 208 854 213 860 q 163 731 174 808 q 151 492 151 653 q 163 253 150 331 q 208 129 175 175 q 221 117 214 122 q 236 107 228 111 q 250 97 244 103 q 435 60 283 72 q 800 47 586 47 q 1340 97 1272 47 l 1369 117 q 1379 129 1378 122 q 1426 253 1415 175 q 1439 492 1438 331 m 1588 1082 l 1588 -110 l 0 -110 l 0 1082 l 1588 1082 z "}}}
